<mxfile host="app.diagrams.net" modified="2022-05-09T09:41:28.102Z" agent="5.0 (Windows NT 10.0; Win64; x64) AppleWebKit/537.36 (KHTML, like Gecko) Chrome/101.0.4951.54 Safari/537.36" etag="aB4XhYpB1dfsY8pYwUU0" version="18.0.2" type="github">
  <diagram name="Page-1" id="9361dd3d-8414-5efd-6122-117bd74ce7a7">
    <mxGraphModel dx="876" dy="431" grid="1" gridSize="10" guides="1" tooltips="1" connect="1" arrows="1" fold="1" page="0" pageScale="1.5" pageWidth="826" pageHeight="1169" background="none" math="0" shadow="0">
      <root>
        <mxCell id="0" />
        <mxCell id="1" parent="0" />
        <mxCell id="PhdI-ZwpvNUuvoCu_mVK-92" value="张三" style="shape=umlLifeline;perimeter=lifelinePerimeter;whiteSpace=wrap;html=1;container=1;collapsible=0;recursiveResize=0;outlineConnect=0;fillColor=#67AB9F;" vertex="1" parent="1">
          <mxGeometry x="370" y="120" width="100" height="330" as="geometry" />
        </mxCell>
        <mxCell id="PhdI-ZwpvNUuvoCu_mVK-95" value="" style="html=1;points=[];perimeter=orthogonalPerimeter;fillColor=#FF6666;" vertex="1" parent="PhdI-ZwpvNUuvoCu_mVK-92">
          <mxGeometry x="45" y="70" width="10" height="250" as="geometry" />
        </mxCell>
        <mxCell id="PhdI-ZwpvNUuvoCu_mVK-107" value="您好，我这里空空如也啊" style="html=1;verticalAlign=bottom;endArrow=open;dashed=1;endSize=8;rounded=0;" edge="1" parent="PhdI-ZwpvNUuvoCu_mVK-92" source="PhdI-ZwpvNUuvoCu_mVK-94">
          <mxGeometry relative="1" as="geometry">
            <mxPoint x="140" y="120" as="sourcePoint" />
            <mxPoint x="60" y="120" as="targetPoint" />
          </mxGeometry>
        </mxCell>
        <mxCell id="PhdI-ZwpvNUuvoCu_mVK-94" value="李四" style="shape=umlLifeline;perimeter=lifelinePerimeter;whiteSpace=wrap;html=1;container=1;collapsible=0;recursiveResize=0;outlineConnect=0;fillColor=#67AB9F;" vertex="1" parent="1">
          <mxGeometry x="750" y="120" width="100" height="330" as="geometry" />
        </mxCell>
        <mxCell id="PhdI-ZwpvNUuvoCu_mVK-101" value="" style="html=1;points=[];perimeter=orthogonalPerimeter;fillColor=#97D077;" vertex="1" parent="PhdI-ZwpvNUuvoCu_mVK-94">
          <mxGeometry x="45" y="70" width="10" height="240" as="geometry" />
        </mxCell>
        <mxCell id="PhdI-ZwpvNUuvoCu_mVK-104" value="" style="shape=umlActor;verticalLabelPosition=bottom;verticalAlign=top;html=1;outlineConnect=0;fillColor=#FF6666;" vertex="1" parent="1">
          <mxGeometry x="395" y="30" width="30" height="60" as="geometry" />
        </mxCell>
        <mxCell id="PhdI-ZwpvNUuvoCu_mVK-105" value="" style="shape=umlActor;verticalLabelPosition=bottom;verticalAlign=top;html=1;outlineConnect=0;fillColor=#97D077;" vertex="1" parent="1">
          <mxGeometry x="785" y="30" width="30" height="60" as="geometry" />
        </mxCell>
        <mxCell id="PhdI-ZwpvNUuvoCu_mVK-106" value="您好，我上次可能在你这里寄存了一把钥匙" style="html=1;verticalAlign=bottom;endArrow=block;rounded=0;entryX=0.159;entryY=0.045;entryDx=0;entryDy=0;entryPerimeter=0;" edge="1" parent="1">
          <mxGeometry width="80" relative="1" as="geometry">
            <mxPoint x="426" y="199" as="sourcePoint" />
            <mxPoint x="792.5900000000001" y="199.45000000000005" as="targetPoint" />
            <Array as="points">
              <mxPoint x="666" y="200" />
            </Array>
          </mxGeometry>
        </mxCell>
        <mxCell id="PhdI-ZwpvNUuvoCu_mVK-108" value="我不信，你把盒子里所有的钥匙都给我看一眼" style="html=1;verticalAlign=bottom;endArrow=block;rounded=0;entryX=0.159;entryY=0.045;entryDx=0;entryDy=0;entryPerimeter=0;" edge="1" parent="1">
          <mxGeometry width="80" relative="1" as="geometry">
            <mxPoint x="425" y="280" as="sourcePoint" />
            <mxPoint x="791.5900000000004" y="280.45000000000005" as="targetPoint" />
            <Array as="points">
              <mxPoint x="665" y="281" />
            </Array>
          </mxGeometry>
        </mxCell>
        <mxCell id="PhdI-ZwpvNUuvoCu_mVK-109" value="好吧，都给你" style="html=1;verticalAlign=bottom;endArrow=open;dashed=1;endSize=8;rounded=0;" edge="1" parent="1" target="PhdI-ZwpvNUuvoCu_mVK-92">
          <mxGeometry relative="1" as="geometry">
            <mxPoint x="790" y="320" as="sourcePoint" />
            <mxPoint x="710" y="320" as="targetPoint" />
          </mxGeometry>
        </mxCell>
        <mxCell id="PhdI-ZwpvNUuvoCu_mVK-110" value="确实没有啊，那我现在就寄存一把" style="html=1;verticalAlign=bottom;endArrow=block;rounded=0;entryX=0.159;entryY=0.045;entryDx=0;entryDy=0;entryPerimeter=0;" edge="1" parent="1">
          <mxGeometry width="80" relative="1" as="geometry">
            <mxPoint x="425" y="370" as="sourcePoint" />
            <mxPoint x="791.5900000000004" y="370.45000000000005" as="targetPoint" />
            <Array as="points">
              <mxPoint x="665" y="371" />
            </Array>
          </mxGeometry>
        </mxCell>
        <mxCell id="PhdI-ZwpvNUuvoCu_mVK-111" value="好的，愿意为您效劳" style="html=1;verticalAlign=bottom;endArrow=open;dashed=1;endSize=8;rounded=0;" edge="1" parent="1">
          <mxGeometry relative="1" as="geometry">
            <mxPoint x="795.2400000000002" y="410" as="sourcePoint" />
            <mxPoint x="424.99925925925936" y="410" as="targetPoint" />
          </mxGeometry>
        </mxCell>
      </root>
    </mxGraphModel>
  </diagram>
</mxfile>
